<svg width="22" height="23" viewBox="0 0 22 23" fill="none" xmlns="http://www.w3.org/2000/svg">
<path fill-rule="evenodd" clip-rule="evenodd" d="M5.5 5.08333C4.99374 5.08333 4.58333 5.49374 4.58333 6V12.4167V17C4.58333 17.5063 4.99374 17.9167 5.5 17.9167H16.5C17.0063 17.9167 17.4167 17.5063 17.4167 17V12.4167V6C17.4167 5.49374 17.0063 5.08333 16.5 5.08333H5.5ZM2.75 6C2.75 4.48122 3.98122 3.25 5.5 3.25H16.5C18.0188 3.25 19.25 4.48122 19.25 6V12.4167V17C19.25 18.5188 18.0188 19.75 16.5 19.75H5.5C3.98122 19.75 2.75 18.5188 2.75 17V12.4167V6Z" fill="#9E78CF"/>
</svg>
