<svg width="17" height="17" viewBox="0 0 17 17" fill="none" xmlns="http://www.w3.org/2000/svg">
<path fill-rule="evenodd" clip-rule="evenodd" d="M2.75 0C1.23122 0 0 1.23122 0 2.75V13.75C0 15.2688 1.23122 16.5 2.75 16.5H13.75C15.2688 16.5 16.5 15.2688 16.5 13.75V2.75C16.5 1.23122 15.2688 0 13.75 0H2.75ZM13.5667 5.13333C13.8704 4.72832 13.7883 4.15376 13.3833 3.85C12.9784 3.54624 12.4038 3.62832 12.1 4.03333L7.23415 10.5211L5.23152 8.51849C4.87353 8.16053 4.29314 8.16053 3.93515 8.51849C3.57717 8.87645 3.57717 9.45688 3.93515 9.81484L6.68516 12.5648C6.87308 12.7528 7.13323 12.8498 7.39833 12.831C7.66343 12.8122 7.90726 12.6792 8.06667 12.4667L13.5667 5.13333Z" fill="#9E78CF"/>
</svg>
