<svg width="17" height="17" viewBox="0 0 17 17" fill="none" xmlns="http://www.w3.org/2000/svg">
<path fill-rule="evenodd" clip-rule="evenodd" d="M3.25 0.25C1.73122 0.25 0.5 1.48122 0.5 3V14C0.5 15.5188 1.73122 16.75 3.25 16.75H14.25C15.7688 16.75 17 15.5188 17 14V3C17 1.48122 15.7688 0.25 14.25 0.25H3.25ZM14.0667 5.38333C14.3705 4.97832 14.2883 4.40376 13.8833 4.1C13.4784 3.79624 12.9038 3.87832 12.6 4.28333L7.73415 10.7711L5.73152 8.76849C5.37353 8.41053 4.79314 8.41053 4.43515 8.76849C4.07717 9.12645 4.07717 9.70688 4.43515 10.0648L7.18516 12.8148C7.37308 13.0028 7.63322 13.0998 7.89832 13.081C8.16342 13.0622 8.40726 12.9292 8.56667 12.7167L14.0667 5.38333Z" fill="#78CFB0"/>
</svg>
