<svg width="20" height="21" viewBox="0 0 20 21" fill="none" xmlns="http://www.w3.org/2000/svg">
<g clip-path="url(#clip0_7_36)">
<path d="M11.6667 15.5C11.6667 15.9603 12.0398 16.3333 12.5 16.3333C12.9603 16.3333 13.3334 15.9603 13.3334 15.5C13.3334 15.0398 12.9603 14.6667 12.5 14.6667C12.0398 14.6667 11.6667 15.0398 11.6667 15.5Z" fill="#9E78CF" stroke="#9E78CF" stroke-width="66.6667" stroke-linecap="round" stroke-linejoin="round"/>
<path d="M6.66669 15.5C6.66669 15.9603 7.03979 16.3333 7.50002 16.3333C7.96025 16.3333 8.33335 15.9603 8.33335 15.5C8.33335 15.0398 7.96025 14.6667 7.50002 14.6667C7.03979 14.6667 6.66669 15.0398 6.66669 15.5Z" fill="#9E78CF" stroke="#9E78CF" stroke-width="66.6667" stroke-linecap="round" stroke-linejoin="round"/>
<path d="M11.6667 10.5C11.6667 10.9603 12.0398 11.3333 12.5 11.3333C12.9603 11.3333 13.3334 10.9603 13.3334 10.5C13.3334 10.0398 12.9603 9.66667 12.5 9.66667C12.0398 9.66667 11.6667 10.0398 11.6667 10.5Z" fill="#9E78CF" stroke="#9E78CF" stroke-width="66.6667" stroke-linecap="round" stroke-linejoin="round"/>
<path d="M6.66669 10.5C6.66669 10.9603 7.03979 11.3333 7.50002 11.3333C7.96025 11.3333 8.33335 10.9603 8.33335 10.5C8.33335 10.0398 7.96025 9.66667 7.50002 9.66667C7.03979 9.66667 6.66669 10.0398 6.66669 10.5Z" fill="#9E78CF" stroke="#9E78CF" stroke-width="66.6667" stroke-linecap="round" stroke-linejoin="round"/>
<path d="M11.6667 5.50001C11.6667 5.96024 12.0398 6.33334 12.5 6.33334C12.9603 6.33334 13.3334 5.96024 13.3334 5.50001C13.3334 5.03977 12.9603 4.66667 12.5 4.66667C12.0398 4.66667 11.6667 5.03977 11.6667 5.50001Z" fill="#9E78CF" stroke="#9E78CF" stroke-width="66.6667" stroke-linecap="round" stroke-linejoin="round"/>
<path d="M6.66669 5.50001C6.66669 5.96024 7.03979 6.33334 7.50002 6.33334C7.96025 6.33334 8.33335 5.96024 8.33335 5.50001C8.33335 5.03977 7.96025 4.66667 7.50002 4.66667C7.03979 4.66667 6.66669 5.03977 6.66669 5.50001Z" fill="#9E78CF" stroke="#9E78CF" stroke-width="66.6667" stroke-linecap="round" stroke-linejoin="round"/>
</g>
<defs>
<clipPath id="clip0_7_36">
<rect width="20" height="20" fill="white" transform="translate(0 0.5)"/>
</clipPath>
</defs>
</svg>
