<svg width="22" height="22" viewBox="0 0 22 22" fill="none" xmlns="http://www.w3.org/2000/svg">
<path fill-rule="evenodd" clip-rule="evenodd" d="M19.3612 2.48147C18.2872 1.40753 16.5461 1.40752 15.4722 2.48147L13.9323 4.02128L6.68516 11.2684C6.56768 11.3859 6.48434 11.5331 6.44405 11.6943L5.52738 15.361C5.44928 15.6734 5.54081 16.0038 5.76849 16.2314C5.99617 16.4591 6.32662 16.5507 6.639 16.4726L10.3056 15.5559C10.4669 15.5156 10.614 15.4323 10.7315 15.3148L17.926 8.12036L19.5185 6.52783C20.5925 5.45389 20.5925 3.71268 19.5185 2.63874L19.3612 2.48147ZM16.7685 3.77783C17.1265 3.41985 17.7069 3.41985 18.0649 3.77783L18.2222 3.9351C18.5801 4.29309 18.5801 4.87349 18.2222 5.23147L17.2904 6.16328L15.8646 4.68177L16.7685 3.77783ZM14.568 5.97837L15.9937 7.45988L9.61474 13.8389L7.67652 14.3235L8.16106 12.3853L14.568 5.97837ZM3.66668 7.33328C3.66668 6.82703 4.07709 6.41662 4.58334 6.41662H9.16668C9.67295 6.41662 10.0833 6.00622 10.0833 5.49995C10.0833 4.99369 9.67295 4.58328 9.16668 4.58328H4.58334C3.06456 4.58328 1.83334 5.8145 1.83334 7.33328V17.4166C1.83334 18.9354 3.06456 20.1666 4.58334 20.1666H14.6667C16.1855 20.1666 17.4167 18.9354 17.4167 17.4166V12.8332C17.4167 12.3271 17.0063 11.9166 16.5 11.9166C15.9937 11.9166 15.5833 12.3271 15.5833 12.8332V17.4166C15.5833 17.9229 15.173 18.3332 14.6667 18.3332H4.58334C4.07709 18.3332 3.66668 17.9229 3.66668 17.4166V7.33328Z" fill="#9E78CF"/>
</svg>
