<svg width="22" height="22" viewBox="0 0 22 22" fill="none" xmlns="http://www.w3.org/2000/svg">
<path d="M18.5625 4.125H3.4375C3.25516 4.125 3.0803 4.19743 2.95136 4.32636C2.82243 4.4553 2.75 4.63016 2.75 4.8125C2.75 4.99484 2.82243 5.1697 2.95136 5.29864C3.0803 5.42757 3.25516 5.5 3.4375 5.5H4.125V17.875C4.125 18.2397 4.26987 18.5894 4.52773 18.8473C4.78559 19.1051 5.13533 19.25 5.5 19.25H16.5C16.8647 19.25 17.2144 19.1051 17.4723 18.8473C17.7301 18.5894 17.875 18.2397 17.875 17.875V5.5H18.5625C18.7448 5.5 18.9197 5.42757 19.0486 5.29864C19.1776 5.1697 19.25 4.99484 19.25 4.8125C19.25 4.63016 19.1776 4.4553 19.0486 4.32636C18.9197 4.19743 18.7448 4.125 18.5625 4.125ZM16.5 17.875H5.5V5.5H16.5V17.875ZM6.875 2.0625C6.875 1.88016 6.94743 1.7053 7.07636 1.57636C7.2053 1.44743 7.38016 1.375 7.5625 1.375H14.4375C14.6198 1.375 14.7947 1.44743 14.9236 1.57636C15.0526 1.7053 15.125 1.88016 15.125 2.0625C15.125 2.24484 15.0526 2.4197 14.9236 2.54864C14.7947 2.67757 14.6198 2.75 14.4375 2.75H7.5625C7.38016 2.75 7.2053 2.67757 7.07636 2.54864C6.94743 2.4197 6.875 2.24484 6.875 2.0625Z" fill="#9E78CF"/>
</svg>
