<svg width="23" height="23" viewBox="0 0 23 23" fill="none" xmlns="http://www.w3.org/2000/svg">
<g clip-path="url(#clip0_1_324)">
<path d="M19.0625 4.625H3.9375C3.75516 4.625 3.5803 4.69743 3.45136 4.82636C3.32243 4.9553 3.25 5.13016 3.25 5.3125C3.25 5.49484 3.32243 5.6697 3.45136 5.79864C3.5803 5.92757 3.75516 6 3.9375 6H4.625V18.375C4.625 18.7397 4.76987 19.0894 5.02773 19.3473C5.28559 19.6051 5.63533 19.75 6 19.75H17C17.3647 19.75 17.7144 19.6051 17.9723 19.3473C18.2301 19.0894 18.375 18.7397 18.375 18.375V6H19.0625C19.2448 6 19.4197 5.92757 19.5486 5.79864C19.6776 5.6697 19.75 5.49484 19.75 5.3125C19.75 5.13016 19.6776 4.9553 19.5486 4.82636C19.4197 4.69743 19.2448 4.625 19.0625 4.625ZM17 18.375H6V6H17V18.375ZM7.375 2.5625C7.375 2.38016 7.44743 2.2053 7.57636 2.07636C7.7053 1.94743 7.88016 1.875 8.0625 1.875H14.9375C15.1198 1.875 15.2947 1.94743 15.4236 2.07636C15.5526 2.2053 15.625 2.38016 15.625 2.5625C15.625 2.74484 15.5526 2.9197 15.4236 3.04864C15.2947 3.17757 15.1198 3.25 14.9375 3.25H8.0625C7.88016 3.25 7.7053 3.17757 7.57636 3.04864C7.44743 2.9197 7.375 2.74484 7.375 2.5625Z" fill="#78CFB0"/>
</g>
<defs>
<clipPath id="clip0_1_324">
<rect width="22" height="22" fill="white" transform="translate(0.5 0.5)"/>
</clipPath>
</defs>
</svg>
